<svg width="22" height="21" viewBox="0 0 22 21" fill="none" xmlns="http://www.w3.org/2000/svg">
<g clip-path="url(#clip0_428_1106)">
<path d="M1.3581 3.19157C1.3581 4.07547 2.0652 4.69417 2.9049 4.73837L13.2905 4.42897L0.606798 17.1127C-0.0119219 17.7315 0.0322781 18.6595 0.606798 19.2341L2.021 20.6483C2.6397 21.267 3.5236 21.267 4.1423 20.6483L16.8261 7.96447L16.5609 18.3944C16.6051 19.2341 17.268 19.897 18.1077 19.9412H20.0522C20.8919 19.897 21.5548 19.2341 21.5548 18.4386V1.20277C21.5548 0.407265 20.8919 -0.255615 20.0522 -0.299805L2.8607 -0.255614C2.0652 -0.255614 1.4023 0.407265 1.3581 1.24697V3.19157Z" fill="#196BDE"/>
</g>
<defs>
<clipPath id="clip0_428_1106">
<rect width="22" height="21" fill="white"/>
</clipPath>
</defs>
</svg>
