<svg width="89" height="80" viewBox="0 0 89 80" fill="none" xmlns="http://www.w3.org/2000/svg">
<g clip-path="url(#clip0_373_576)">
<path d="M12.0984 60.4756C15.3408 62.7373 20.5979 62.7373 23.8404 60.4756C27.0828 58.2139 27.0828 54.5469 23.8404 52.2853C20.5979 50.0236 15.3408 50.0236 12.0984 52.2853C8.85589 54.5469 8.85589 58.2139 12.0984 60.4756Z" fill="#196BDE"/>
<path d="M45.7522 29.7623C50.616 33.1547 58.5014 33.1547 63.3652 29.7623C68.2288 26.3697 68.2288 20.8694 63.3652 17.4769C58.5014 14.0844 50.616 14.0844 45.7522 17.4769C40.8886 20.8694 40.8886 26.3697 45.7522 29.7623Z" fill="#196BDE"/>
<path d="M27.887 45.1189C31.94 47.9459 38.5114 47.9459 42.5644 45.1189C46.6175 42.2918 46.6175 37.7082 42.5644 34.881C38.5114 32.0541 31.94 32.0541 27.887 34.881C23.8339 37.7082 23.8339 42.2918 27.887 45.1189Z" fill="#196BDE"/>
<path d="M1.82388 43.0714C4.25573 44.7676 8.19853 44.7676 10.6304 43.0714C13.0622 41.3751 13.0622 38.625 10.6304 36.9286C8.19853 35.2324 4.25573 35.2324 1.82388 36.9286C-0.607963 38.625 -0.60796 41.3751 1.82388 43.0714Z" fill="#196BDE"/>
<path d="M27.887 12.3581C31.94 15.1851 38.5114 15.1851 42.5644 12.3581C46.6175 9.53099 46.6175 4.94739 42.5644 2.12031C38.5114 -0.70677 31.94 -0.706772 27.887 2.12031C23.8339 4.94739 23.8339 9.53099 27.887 12.3581Z" fill="#196BDE"/>
<path d="M12.0983 27.7147C15.3408 29.9764 20.5979 29.9764 23.8404 27.7147C27.0827 25.4531 27.0827 21.7861 23.8404 19.5245C20.5979 17.2629 15.3408 17.2629 12.0983 19.5245C8.85588 21.7861 8.8559 25.4531 12.0983 27.7147Z" fill="#196BDE"/>
<path d="M27.887 77.8798C31.94 80.7067 38.5114 80.7067 42.5644 77.8798C46.6175 75.0526 46.6175 70.4691 42.5644 67.6419C38.5114 64.815 31.94 64.815 27.887 67.6419C23.8339 70.4691 23.8339 75.0526 27.887 77.8798Z" fill="#196BDE"/>
<path d="M67.1604 46.1427C72.0242 49.5351 79.9099 49.5351 84.7734 46.1427C89.6372 42.7503 89.6372 37.2499 84.7734 33.8575C79.9099 30.4648 72.0242 30.4648 67.1604 33.8575C62.2968 37.2499 62.2968 42.7503 67.1604 46.1427Z" fill="#196BDE"/>
<path d="M45.7522 62.5229C50.616 65.9156 58.5014 65.9156 63.3652 62.5229C68.2288 59.1305 68.2288 53.6303 63.3652 50.2377C58.5014 46.8453 50.616 46.8453 45.7522 50.2377C40.8886 53.6303 40.8886 59.1305 45.7522 62.5229Z" fill="#196BDE"/>
</g>
<defs>
<clipPath id="clip0_373_576">
<rect width="88.4211" height="80" fill="white"/>
</clipPath>
</defs>
</svg>
