<svg width="55" height="49" viewBox="0 0 55 49" fill="none" xmlns="http://www.w3.org/2000/svg">
<g clip-path="url(#clip0_423_612)">
<path d="M7.40992 37.0409C9.39592 38.4262 12.6159 38.4262 14.6019 37.0409C16.5879 35.6556 16.5879 33.4096 14.6019 32.0243C12.6159 30.639 9.39592 30.639 7.40992 32.0243C5.42391 33.4096 5.42391 35.6556 7.40992 37.0409Z" fill="#495057"/>
<path d="M28.0233 18.2297C31.0023 20.3076 35.8322 20.3076 38.8113 18.2297C41.7902 16.1517 41.7902 12.7828 38.8113 10.7049C35.8322 8.62701 31.0023 8.62701 28.0233 10.7049C25.0443 12.7828 25.0443 16.1517 28.0233 18.2297Z" fill="#495057"/>
<path d="M17.0811 27.6357C19.5636 29.3673 23.5886 29.3673 26.0711 27.6357C28.5536 25.9041 28.5536 23.0967 26.0711 21.365C23.5886 19.6335 19.5636 19.6335 17.0811 21.365C14.5986 23.0967 14.5986 25.9041 17.0811 27.6357Z" fill="#495057"/>
<path d="M1.11713 26.3815C2.60663 27.4204 5.0216 27.4204 6.51111 26.3815C8.0006 25.3425 8.0006 23.6581 6.51111 22.619C5.0216 21.5801 2.60663 21.5801 1.11713 22.619C-0.372377 23.6581 -0.372376 25.3425 1.11713 26.3815Z" fill="#495057"/>
<path d="M17.0811 7.56931C19.5636 9.30089 23.5886 9.30089 26.0711 7.56931C28.5536 5.83773 28.5536 3.03027 26.0711 1.29869C23.5886 -0.432897 19.5636 -0.432898 17.0811 1.29869C14.5986 3.03027 14.5986 5.83773 17.0811 7.56931Z" fill="#495057"/>
<path d="M7.40991 16.9754C9.39592 18.3607 12.6159 18.3607 14.6019 16.9754C16.5879 15.5901 16.5879 13.3441 14.6019 11.9589C12.6159 10.5736 9.39592 10.5736 7.40991 11.9589C5.4239 13.3441 5.42392 15.5901 7.40991 16.9754Z" fill="#495057"/>
<path d="M17.0811 47.7012C19.5636 49.4327 23.5886 49.4327 26.0711 47.7012C28.5536 45.9695 28.5536 43.1621 26.0711 41.4305C23.5886 39.699 19.5636 39.699 17.0811 41.4305C14.5986 43.1621 14.5986 45.9695 17.0811 47.7012Z" fill="#495057"/>
<path d="M41.1356 28.2629C44.1146 30.3408 48.9446 30.3408 51.9236 28.2629C54.9026 26.185 54.9026 22.816 51.9236 20.7382C48.9446 18.6602 44.1146 18.6602 41.1356 20.7382C38.1566 22.816 38.1566 26.185 41.1356 28.2629Z" fill="#495057"/>
<path d="M28.0233 38.295C31.0023 40.373 35.8322 40.373 38.8113 38.295C41.7902 36.2172 41.7902 32.8483 38.8113 30.7703C35.8322 28.6924 31.0023 28.6924 28.0233 30.7703C25.0443 32.8483 25.0443 36.2172 28.0233 38.295Z" fill="#495057"/>
</g>
<defs>
<clipPath id="clip0_423_612">
<rect width="54.1579" height="49" fill="white"/>
</clipPath>
</defs>
</svg>
