<svg width="85" height="22" viewBox="0 0 85 22" fill="none" xmlns="http://www.w3.org/2000/svg">
<path d="M27.3253 16.4213C26.8957 16.4447 26.4708 16.3225 26.1191 16.0746C25.9721 15.9657 25.8539 15.8226 25.7746 15.6578C25.6953 15.4929 25.6574 15.3112 25.664 15.1284V8.43255C25.6605 8.40424 25.6635 8.37542 25.6728 8.3484C25.6821 8.32139 25.6974 8.2969 25.7176 8.27668C25.7378 8.25645 25.7623 8.24114 25.7893 8.2319C25.8163 8.22258 25.8452 8.21962 25.8735 8.22308H27.087C27.2242 8.22308 27.2892 8.29531 27.2892 8.43255V14.6083C27.2892 14.8828 27.412 15.02 27.6648 15.02C27.772 15.0244 27.8792 15.0123 27.9826 14.9839C28.1271 14.9839 28.2065 15.0273 28.2138 15.1573L28.3221 16.0602C28.3273 16.0865 28.3268 16.1136 28.3207 16.1398C28.3145 16.1658 28.3028 16.1904 28.2864 16.2116C28.27 16.2328 28.2492 16.2503 28.2255 16.2628C28.2017 16.2753 28.1756 16.2826 28.1488 16.2841C27.8829 16.3719 27.6052 16.4182 27.3253 16.4213Z" fill="#495057"/>
<path d="M34.1509 15.6484C33.5412 16.1522 32.7749 16.4277 31.984 16.4277C31.1931 16.4277 30.4268 16.1522 29.8171 15.6484C29.2812 15.1074 28.9805 14.3766 28.9805 13.6151C28.9805 12.8535 29.2812 12.1228 29.8171 11.5818C30.428 11.0805 31.1938 10.8066 31.984 10.8066C32.7742 10.8066 33.54 11.0805 34.1509 11.5818C34.6745 12.1277 34.9668 12.855 34.9668 13.6115C34.9668 14.3679 34.6745 15.0952 34.1509 15.6412V15.6484ZM30.9583 14.6949C31.2413 14.9513 31.6094 15.0932 31.9912 15.0932C32.373 15.0932 32.7412 14.9513 33.0241 14.6949C33.2803 14.4005 33.4212 14.0234 33.4212 13.6331C33.4212 13.2429 33.2803 12.8658 33.0241 12.5713C32.7412 12.315 32.373 12.173 31.9912 12.173C31.6094 12.173 31.2413 12.315 30.9583 12.5713C30.7022 12.8658 30.5612 13.2429 30.5612 13.6331C30.5612 14.0234 30.7022 14.4005 30.9583 14.6949Z" fill="#495057"/>
<path d="M41.6487 10.9902C41.7859 10.9902 41.8509 11.0624 41.8509 11.1997V16.3786C41.8636 16.7282 41.7981 17.0762 41.6594 17.3972C41.5208 17.7184 41.3123 18.0046 41.0492 18.235C40.4651 18.733 39.714 18.9911 38.9472 18.9573C38.2547 18.9816 37.5713 18.7925 36.9898 18.4156C36.7414 18.2525 36.5293 18.0401 36.3666 17.7916C36.2038 17.5431 36.0938 17.2638 36.0435 16.9709C36.0435 16.8265 36.0435 16.7615 36.2386 16.7615H37.4521C37.5036 16.7632 37.5535 16.7799 37.5958 16.8094C37.6381 16.8388 37.671 16.8799 37.6904 16.9276C37.7691 17.147 37.926 17.3296 38.131 17.4404C38.3809 17.5694 38.659 17.634 38.94 17.6282C39.1096 17.6376 39.2794 17.6129 39.4394 17.5559C39.5993 17.4989 39.7463 17.4105 39.8718 17.296C39.9864 17.1762 40.0756 17.0344 40.1339 16.8793C40.1923 16.7241 40.2186 16.5587 40.2113 16.3931V15.938C39.7768 16.2576 39.248 16.4228 38.7089 16.4075C38.3315 16.4213 37.9554 16.3586 37.6028 16.2233C37.2503 16.088 36.9288 15.8829 36.6575 15.6202C36.1368 15.0815 35.8457 14.3615 35.8457 13.6122C35.8457 12.8629 36.1368 12.1429 36.6575 11.6042C36.9301 11.3438 37.252 11.1407 37.6043 11.0067C37.9567 10.8727 38.3322 10.8106 38.7089 10.8241C39.2636 10.8094 39.8066 10.9854 40.2474 11.3225V11.2069C40.2441 11.1792 40.247 11.1511 40.2559 11.1247C40.2647 11.0983 40.2794 11.0742 40.2988 11.0541C40.3181 11.034 40.3417 11.0186 40.3678 11.0088C40.394 10.9989 40.4219 10.9951 40.4497 10.9974L41.6487 10.9902ZM38.8461 15.1218C39.0322 15.1276 39.2173 15.0924 39.3883 15.0187C39.5593 14.9451 39.712 14.8348 39.8357 14.6957C40.0759 14.3856 40.2062 14.0044 40.2062 13.6122C40.2062 13.22 40.0759 12.8389 39.8357 12.5287C39.7125 12.3915 39.5606 12.2828 39.391 12.2104C39.2212 12.138 39.0377 12.1037 38.8533 12.1098C38.6651 12.1039 38.4779 12.1389 38.3045 12.2125C38.1312 12.2861 37.9759 12.3965 37.8493 12.5359C37.5833 12.8326 37.4434 13.2213 37.4593 13.6194C37.4463 14.0136 37.5831 14.3982 37.8421 14.6957C37.9689 14.8348 38.1243 14.9449 38.2976 15.0185C38.4709 15.092 38.658 15.1272 38.8461 15.1218Z" fill="#495057"/>
<path d="M48.0845 15.6482C47.4736 16.1494 46.7078 16.4233 45.9176 16.4233C45.1274 16.4233 44.3616 16.1494 43.7507 15.6482C43.2266 15.101 42.9341 14.3726 42.9341 13.6149C42.9341 12.8573 43.2266 12.1288 43.7507 11.5816C44.3622 11.0817 45.1277 10.8086 45.9176 10.8086C46.7074 10.8086 47.473 11.0817 48.0845 11.5816C48.6081 12.1276 48.9005 12.8548 48.9005 13.6113C48.9005 14.3678 48.6081 15.095 48.0845 15.641V15.6482ZM44.8847 14.6948C45.0232 14.8265 45.1864 14.9295 45.365 14.9976C45.5435 15.0658 45.7338 15.098 45.9248 15.0921C46.1146 15.097 46.3036 15.0645 46.4809 14.9963C46.6581 14.9281 46.8201 14.8257 46.9577 14.6948C47.2097 14.3983 47.348 14.022 47.348 13.633C47.348 13.2439 47.2097 12.8676 46.9577 12.5712C46.8201 12.4404 46.6581 12.3379 46.4809 12.2698C46.3036 12.2016 46.1146 12.169 45.9248 12.1739C45.7338 12.1681 45.5435 12.2001 45.365 12.2683C45.1864 12.3365 45.0232 12.4395 44.8847 12.5712C44.6328 12.8676 44.4945 13.2439 44.4945 13.633C44.4945 14.022 44.6328 14.3983 44.8847 14.6948Z" fill="#495057"/>
<path d="M51.5082 9.76186C51.3173 9.929 51.0722 10.0211 50.8184 10.0211C50.5647 10.0211 50.3196 9.929 50.1286 9.76186C50.0421 9.68016 49.9731 9.58164 49.9259 9.47235C49.8788 9.36307 49.8545 9.24526 49.8545 9.12622C49.8545 9.00718 49.8788 8.88945 49.9259 8.78009C49.9731 8.6708 50.0421 8.57228 50.1286 8.49059C50.3215 8.32763 50.5659 8.23828 50.8184 8.23828C51.0709 8.23828 51.3153 8.32763 51.5082 8.49059C51.5948 8.57228 51.6638 8.6708 51.7109 8.78009C51.7581 8.88945 51.7823 9.00718 51.7823 9.12622C51.7823 9.24526 51.7581 9.36307 51.7109 9.47235C51.6638 9.58164 51.5948 9.68016 51.5082 9.76186ZM51.6599 16.4216C51.2306 16.4427 50.8064 16.3207 50.4536 16.0749C50.309 15.9644 50.1927 15.8208 50.1149 15.6561C50.0369 15.4915 49.9995 15.3107 50.0058 15.1286V11.1993C50.0024 11.1709 50.0053 11.1421 50.0146 11.1151C50.0239 11.0881 50.0392 11.0636 50.0594 11.0434C50.0796 11.0232 50.1041 11.0078 50.1311 10.9986C50.1582 10.9893 50.187 10.9863 50.2153 10.9898H51.4288C51.566 10.9898 51.631 11.062 51.631 11.1993V14.6086C51.631 14.8831 51.7538 15.0203 51.9994 15.0203C52.109 15.0243 52.2185 15.0121 52.3244 14.9842C52.4689 14.9842 52.5484 15.0275 52.5556 15.1575L52.6639 16.0604C52.6691 16.0868 52.6686 16.1139 52.6625 16.14C52.6563 16.1661 52.6446 16.1907 52.6282 16.2118C52.6118 16.2331 52.591 16.2505 52.5673 16.263C52.5435 16.2755 52.5174 16.2828 52.4906 16.2843C52.2224 16.3727 51.9423 16.419 51.6599 16.4216Z" fill="#495057"/>
<path d="M57.1277 10.8167C57.5067 10.8018 57.8849 10.8631 58.2397 10.9971C58.5946 11.1312 58.919 11.3351 59.1935 11.5968C59.7043 12.1451 59.9883 12.8664 59.9883 13.6157C59.9883 14.3649 59.7043 15.0864 59.1935 15.6346C58.9203 15.8987 58.5963 16.1046 58.2413 16.2399C57.8862 16.3753 57.5074 16.4372 57.1277 16.4219C56.5868 16.4339 56.0567 16.2691 55.618 15.9524V18.5599C55.618 18.6972 55.5458 18.7622 55.4086 18.7622H54.1951C54.1674 18.7674 54.1389 18.7657 54.1119 18.7574C54.0851 18.749 54.0606 18.7343 54.0406 18.7143C54.0208 18.6944 54.006 18.67 53.9977 18.6431C53.9893 18.6162 53.9877 18.5877 53.9928 18.5599V12.637C54.0014 12.579 53.9962 12.5199 53.9778 12.4643C53.9594 12.4088 53.9282 12.3582 53.8868 12.3168C53.8454 12.2754 53.7949 12.2443 53.7393 12.2259C53.6838 12.2075 53.6246 12.2023 53.5667 12.2108H53.3283C53.1694 12.2108 53.0899 12.153 53.0899 12.0374V11.1851C53.0862 11.1324 53.1006 11.0799 53.1309 11.0366C53.1611 10.9932 53.2053 10.9615 53.2561 10.9467C53.5059 10.856 53.7704 10.8119 54.0362 10.8167C54.3013 10.7933 54.5673 10.8495 54.8002 10.9782C55.0331 11.1069 55.2224 11.3022 55.3436 11.539C55.5762 11.3037 55.8544 11.1183 56.1612 10.9941C56.468 10.8699 56.7968 10.8095 57.1277 10.8167ZM56.0009 14.6955C56.1296 14.8302 56.2844 14.9373 56.4557 15.0105C56.627 15.0836 56.8114 15.1214 56.9977 15.1214C57.1839 15.1214 57.3683 15.0836 57.5396 15.0105C57.7109 14.9373 57.8657 14.8302 57.9944 14.6955C58.2657 14.393 58.4083 13.9965 58.3917 13.5904C58.4106 13.184 58.2678 12.7866 57.9944 12.4853C57.8657 12.3507 57.7109 12.2436 57.5396 12.1704C57.3683 12.0972 57.1839 12.0595 56.9977 12.0595C56.8114 12.0595 56.627 12.0972 56.4557 12.1704C56.2844 12.2436 56.1296 12.3507 56.0009 12.4853C55.7381 12.792 55.6013 13.1869 55.618 13.5904C55.6034 13.9937 55.74 14.3878 56.0009 14.6955Z" fill="#495057"/>
<path d="M63.3973 16.422C62.7489 16.4486 62.106 16.2935 61.541 15.9741C61.3143 15.8376 61.1213 15.6518 60.9762 15.4304C60.8312 15.2091 60.7379 14.958 60.7031 14.6956C60.7031 14.5512 60.7537 14.4789 60.9126 14.4789H61.9744C62.0249 14.481 62.0739 14.4968 62.116 14.5249C62.158 14.5529 62.1915 14.592 62.2128 14.6378C62.3644 15.0279 62.7617 15.2229 63.3973 15.2229C63.6191 15.2331 63.8398 15.1884 64.0402 15.0929C64.1094 15.0617 64.1687 15.0123 64.212 14.95C64.2552 14.8876 64.2807 14.8147 64.2858 14.739C64.2858 14.5512 64.1702 14.4211 63.9391 14.3345C63.665 14.2432 63.3815 14.1826 63.094 14.1539C62.7534 14.1153 62.4157 14.055 62.0827 13.9733C61.759 13.9001 61.4647 13.7315 61.2376 13.4894C61.1039 13.3248 61.0056 13.1345 60.9485 12.9303C60.8915 12.7261 60.8771 12.5123 60.9062 12.3023C60.9354 12.0923 61.0074 11.8905 61.1179 11.7095C61.2283 11.5285 61.3748 11.3722 61.5482 11.2502C62.0689 10.9186 62.6797 10.757 63.2962 10.7879C63.8931 10.7678 64.4837 10.9154 65.0009 11.2141C65.2093 11.3322 65.3888 11.4952 65.5262 11.6914C65.6637 11.8876 65.7556 12.1119 65.7954 12.3481C65.7954 12.4926 65.7304 12.5648 65.6004 12.5648H64.5314C64.4864 12.5675 64.4416 12.5565 64.403 12.5333C64.3643 12.5101 64.3335 12.4757 64.3147 12.4348C64.2433 12.2637 64.1088 12.1266 63.9391 12.052C63.7477 11.9518 63.5339 11.9021 63.3179 11.9075C63.1062 11.896 62.895 11.9383 62.7039 12.0303C62.6366 12.0563 62.5787 12.1018 62.5374 12.161C62.4963 12.2203 62.4737 12.2905 62.4728 12.3626C62.4774 12.4614 62.5136 12.5561 62.576 12.6328C62.6384 12.7095 62.7237 12.7641 62.8195 12.7887C63.0969 12.8933 63.3853 12.966 63.6791 13.0054C64.0169 13.0499 64.352 13.1126 64.6831 13.1932C65.0068 13.2665 65.3011 13.435 65.5282 13.6772C65.6497 13.8106 65.7434 13.9667 65.8042 14.1366C65.8649 14.3064 65.8914 14.4866 65.8821 14.6667C65.8883 14.9164 65.8297 15.1635 65.712 15.3838C65.5943 15.604 65.4214 15.79 65.2104 15.9236C64.6707 16.2701 64.0383 16.4438 63.3973 16.422Z" fill="#495057"/>
<path d="M73.5168 16.0609C73.5212 16.0865 73.5197 16.1127 73.5139 16.1379C73.5074 16.1632 73.4966 16.1869 73.4807 16.2078C73.4656 16.2287 73.446 16.2462 73.4237 16.2594C73.4013 16.2727 73.3767 16.2812 73.3507 16.2848C73.0871 16.3709 72.8119 16.4172 72.5345 16.422C72.26 16.4505 71.9826 16.4076 71.7298 16.2975C71.4763 16.1874 71.256 16.0138 71.0899 15.7936C70.5799 16.2323 69.9197 16.4573 69.248 16.422C68.9359 16.4364 68.6246 16.3853 68.3335 16.2721C68.0424 16.159 67.7781 15.9861 67.5578 15.7647C67.3389 15.5328 67.1693 15.259 67.0588 14.9599C66.9483 14.6608 66.8994 14.3425 66.9149 14.0239V11.1997C66.9149 11.0625 66.9799 10.9902 67.1171 10.9902H68.3306C68.4679 10.9902 68.5329 11.0625 68.5329 11.1997V13.8073C68.5199 14.1321 68.6304 14.4498 68.8435 14.6957C68.9497 14.8084 69.0789 14.8969 69.222 14.9555C69.365 15.0141 69.5196 15.0413 69.6741 15.0352C69.8323 15.0421 69.9905 15.0176 70.1393 14.963C70.2881 14.9085 70.4246 14.825 70.5409 14.7174C70.6507 14.604 70.7367 14.4692 70.7923 14.3213C70.8486 14.1735 70.8732 14.0157 70.8659 13.8578V11.1997C70.8659 11.0625 70.931 10.9902 71.0682 10.9902H72.2961C72.4334 10.9902 72.4984 11.0625 72.4984 11.1997V14.6018C72.4984 14.8835 72.6212 15.0207 72.8595 15.0207C72.9715 15.0251 73.0834 15.0129 73.1918 14.9846C73.2192 14.977 73.2481 14.9756 73.2756 14.9806C73.3038 14.9856 73.3298 14.9969 73.3529 15.0136C73.376 15.0303 73.3948 15.0519 73.4085 15.0769C73.4215 15.1019 73.4287 15.1297 73.4302 15.158L73.5168 16.0609Z" fill="#495057"/>
<path d="M84.9943 16.0604C85.0008 16.0863 85.0015 16.1133 84.9965 16.1395C84.9907 16.1655 84.9799 16.1902 84.964 16.2116C84.9481 16.233 84.9279 16.2506 84.904 16.2632C84.8809 16.2758 84.8549 16.2831 84.8282 16.2844C84.5595 16.3717 84.28 16.418 83.9975 16.4216C83.5678 16.4438 83.1438 16.3218 82.7913 16.0749C82.6389 15.9691 82.5154 15.8275 82.4308 15.6624C82.3463 15.4974 82.3037 15.314 82.3073 15.1287V13.4312C82.3225 13.1073 82.2141 12.7897 82.004 12.5428C81.9028 12.4299 81.7771 12.3409 81.6377 12.2822C81.4976 12.2235 81.3467 12.1966 81.195 12.2033C81.0584 12.1982 80.9227 12.2241 80.797 12.2791C80.672 12.3342 80.5615 12.417 80.4727 12.5211C80.282 12.7632 80.1844 13.0657 80.1982 13.3734V16.0388C80.1982 16.176 80.1332 16.2482 79.9959 16.2482H78.7752C78.747 16.2518 78.7182 16.2487 78.6914 16.2395C78.664 16.2302 78.6394 16.2149 78.6192 16.1946C78.599 16.1745 78.5838 16.1499 78.5744 16.1229C78.565 16.0959 78.5621 16.0672 78.5657 16.0388V13.4312C78.5816 13.1109 78.4812 12.7955 78.284 12.5428C78.1959 12.4366 78.0854 12.3511 77.9604 12.2925C77.8362 12.2338 77.6997 12.2034 77.5617 12.2033C77.4144 12.1974 77.2677 12.2226 77.1305 12.2774C76.9933 12.3322 76.8698 12.4152 76.7672 12.5211C76.5606 12.7554 76.4544 13.0615 76.471 13.3734V16.0388C76.4747 16.0672 76.4718 16.0959 76.4624 16.1229C76.453 16.1499 76.4378 16.1745 76.4176 16.1946C76.3974 16.2149 76.3728 16.2302 76.3461 16.2395C76.3186 16.2487 76.2897 16.2518 76.2616 16.2482H75.0842C74.947 16.2482 74.882 16.176 74.882 16.0388V12.6367C74.8906 12.5787 74.8856 12.5197 74.8668 12.464C74.8487 12.4085 74.8177 12.3579 74.7758 12.3165C74.7346 12.2752 74.684 12.244 74.6284 12.2256C74.5728 12.2072 74.5136 12.2021 74.4558 12.2105H74.2174C74.0585 12.2105 73.9791 12.1527 73.9791 12.0372V11.1848C73.9754 11.1321 73.9899 11.0797 74.0202 11.0363C74.0506 10.9929 74.0946 10.9612 74.1452 10.9465C74.3951 10.8557 74.6595 10.8116 74.9253 10.8165C75.1803 10.7947 75.4367 10.8456 75.6642 10.9632C75.8917 11.0807 76.081 11.2602 76.211 11.481C76.4544 11.2501 76.7433 11.0718 77.059 10.9574C77.3747 10.8431 77.7105 10.7951 78.0457 10.8165C78.3714 10.8006 78.6958 10.8616 78.9934 10.9946C79.2909 11.1277 79.5524 11.3289 79.7576 11.5821C79.9966 11.3223 80.2906 11.1189 80.6178 10.9864C80.945 10.854 81.2975 10.796 81.65 10.8165C81.9649 10.8017 82.2799 10.8525 82.5746 10.9657C82.8693 11.0788 83.1373 11.2518 83.3619 11.4738C83.5815 11.7053 83.7512 11.9789 83.8617 12.2782C83.9723 12.5774 84.0214 12.896 84.0048 13.2145V14.6086C84.0048 14.8831 84.1276 15.0203 84.3587 15.0203C84.4707 15.0255 84.5826 15.0134 84.691 14.9842C84.8405 14.9842 84.9199 15.042 84.9293 15.1575L84.9943 16.0604Z" fill="#495057"/>
<path d="M0.296148 10.0508C0.829048 7.90893 2.06323 6.00686 3.80218 4.64757C5.54115 3.28825 7.6849 2.5498 9.89207 2.5498C12.0992 2.5498 14.243 3.28825 15.982 4.64757C17.7209 6.00686 18.9551 7.90893 19.488 10.0508H18.6212C17.159 10.0293 15.7268 10.4663 14.5257 11.3004C14.4564 11.3506 14.384 11.3965 14.309 11.4376H14.2079C14.1329 11.3965 14.0605 11.3506 13.9912 11.3004C12.7794 10.4856 11.3523 10.0504 9.89207 10.0504C8.43184 10.0504 7.0047 10.4856 5.79295 11.3004C5.7236 11.3506 5.65123 11.3965 5.57625 11.4376H5.47513C5.40015 11.3965 5.32778 11.3506 5.25843 11.3004C4.0573 10.4663 2.6251 10.0293 1.16292 10.0508H0.296148ZM17.061 14.5797C17.506 14.2332 18.0574 14.0519 18.6212 14.0669H19.7841V11.7482H18.6212C17.6282 11.7362 16.6579 12.0453 15.8548 12.6295C15.4028 12.9627 14.8561 13.1424 14.2946 13.1424C13.733 13.1424 13.1863 12.9627 12.7344 12.6295C11.9109 12.0562 10.9315 11.7489 9.92819 11.7489C8.92482 11.7489 7.94551 12.0562 7.122 12.6295C6.67005 12.9627 6.12333 13.1424 5.56181 13.1424C5.00028 13.1424 4.45356 12.9627 4.00161 12.6295C3.18858 12.0378 2.20435 11.7284 1.19904 11.7482H0V14.0669H1.16292C1.72669 14.0519 2.27817 14.2332 2.72312 14.5797C3.54511 15.1534 4.52334 15.4609 5.52569 15.4609C6.52804 15.4609 7.50627 15.1534 8.32826 14.5797C8.77379 14.2343 9.32484 14.0531 9.88846 14.0669C10.4524 14.0507 11.0043 14.2321 11.4487 14.5797C12.2722 15.153 13.2515 15.4603 14.2548 15.4603C15.2582 15.4603 16.2375 15.153 17.061 14.5797ZM17.061 18.7258C17.506 18.3793 18.0574 18.198 18.6212 18.2129H19.7841V15.8943H18.6212C17.6282 15.8823 16.6579 16.1914 15.8548 16.7755C15.4028 17.1087 14.8561 17.2885 14.2946 17.2885C13.733 17.2885 13.1863 17.1087 12.7344 16.7755C11.9109 16.2023 10.9315 15.895 9.92819 15.895C8.92482 15.895 7.94551 16.2023 7.122 16.7755C6.67005 17.1087 6.12333 17.2885 5.56181 17.2885C5.00028 17.2885 4.45356 17.1087 4.00161 16.7755C3.18858 16.184 2.20435 15.8744 1.19904 15.8943H0V18.2129H1.16292C1.72669 18.198 2.27817 18.3793 2.72312 18.7258C3.54511 19.2994 4.52334 19.607 5.52569 19.607C6.52804 19.607 7.50627 19.2994 8.32826 18.7258C8.77379 18.3804 9.32484 18.1992 9.88846 18.2129C10.4524 18.1968 11.0043 18.3782 11.4487 18.7258C12.2722 19.2991 13.2515 19.6063 14.2548 19.6063C15.2582 19.6063 16.2375 19.2991 17.061 18.7258Z" fill="#495057"/>
</svg>
